<svg width="224" height="608" viewBox="0 0 224 608" fill="none" xmlns="http://www.w3.org/2000/svg">
<path d="M192 544H224C224 579.346 195.346 608 160 608H64C28.6538 608 0 579.346 0 544H32C32 561.673 46.3269 576 64 576H160C177.673 576 192 561.673 192 544Z" fill="white"/>
<path fill-rule="evenodd" clip-rule="evenodd" d="M192 471.438C182.586 476.883 171.657 480 160 480H64C28.6538 480 0 451.346 0 416C0 380.654 28.6538 352 64 352H160C195.346 352 224 380.654 224 416V512H192V471.438ZM64 448H160C177.673 448 192 433.673 192 416C192 398.327 177.673 384 160 384H64C46.3269 384 32 398.327 32 416C32 433.673 46.3269 448 64 448Z" fill="white"/>
<rect x="224" y="288" width="32" height="224" transform="rotate(90 224 288)" fill="white"/>
<path d="M192 176V192C186.654 187.991 180.816 184.658 174.615 182.09C164.909 178.069 154.506 176 144 176H112V208H144C150.303 208 156.545 209.242 162.369 211.654C168.192 214.066 173.484 217.602 177.941 222.059C182.398 226.516 185.934 231.808 188.346 237.631C190.758 243.455 192 249.697 192 256H224V176C224 165.494 221.931 155.091 217.91 145.385C213.89 135.679 207.997 126.86 200.569 119.431C193.14 112.003 184.321 106.11 174.615 102.09C164.909 98.0692 154.506 96 144 96H112V128H144C150.303 128 156.545 129.242 162.369 131.654C168.192 134.066 173.484 137.602 177.941 142.059C182.398 146.516 185.934 151.808 188.346 157.631C190.758 163.455 192 169.697 192 176Z" fill="white"/>
<path d="M112 176H80C69.4942 176 59.0914 173.931 49.3853 169.91C43.1844 167.342 37.3456 164.009 32 160V176C32 182.303 33.2416 188.545 35.6538 194.369C38.066 200.192 41.6017 205.484 46.0589 209.941C50.5161 214.398 55.8076 217.934 61.6312 220.346C67.4548 222.758 73.6965 224 80 224H112V256H80C69.4943 256 59.0914 253.931 49.3853 249.91C39.6793 245.89 30.8602 239.997 23.4315 232.569C16.0028 225.14 10.11 216.321 6.08963 206.615C2.06926 196.909 0 186.506 0 176V96H32C32 102.303 33.2416 108.545 35.6538 114.369C38.066 120.192 41.6017 125.484 46.0589 129.941C50.5161 134.398 55.8076 137.934 61.6312 140.346C67.4548 142.758 73.6965 144 80 144H112V176Z" fill="white"/>
<path d="M192 64H224C224 28.6537 195.346 0 160 0H64C28.6538 0 0 28.6537 0 64H32C32 46.3269 46.3269 32 64 32H160C177.673 32 192 46.3269 192 64Z" fill="white"/>
</svg>
